<svg width="842" height="383" viewBox="0 0 842 383" fill="none" xmlns="http://www.w3.org/2000/svg">
<g clip-path="url(#clip0_531_142)">
<path d="M842 0H0V383H842V0Z" fill="#16181b"/>
<path fill-rule="evenodd" clip-rule="evenodd" d="M273.1 193C275.5 193.6 278.3 191 279.3 187.1C280.3 183.3 279.1 179.6 276.6 179C274.2 178.4 271.4 181 270.4 184.9C269.5 188.8 270.7 192.4 273.1 193Z" fill="#D6FB6D"/>
<path d="M271.6 202.1C273.422 202.1 274.9 200.623 274.9 198.8C274.9 196.977 273.422 195.5 271.6 195.5C269.777 195.5 268.3 196.977 268.3 198.8C268.3 200.623 269.777 202.1 271.6 202.1Z" fill="#D6FB6D"/>
<path fill-rule="evenodd" clip-rule="evenodd" d="M383.7 121.1C385.2 118.5 376.7 111.1 376 110.4C361.6 98.5 336 104.3 311.9 122.7C310.9 123.5 309.8 122.3 308.8 123.2C291.6 105.8 267.8 95 241.4 95C215.2 95 191.5 105.7 174.3 122.9C173 121.7 171.6 120 170.2 118.9C147.8 100.8 122.5 92.6 104.7 107.1C86.7999 121.6 91.8999 158.2 115.5 191.6C115.1 186.8 115.6 180.6 122 174.1L115.5 169.5C118.3 166.5 126.7 161.3 140.3 162.3C143.6 167.1 149.2 178.5 142.9 188.4L137 183.2C133.3 189.1 126.3 206.6 137 215.2C142.6 220.1 150.3 226.7 156 230.1C171.3 261.8 203.7 286.3 241.3 286.3C280 286.3 313.3 263.1 327.9 229.8C338.3 223 348.7 213.7 358 202.5C365.8 193 372.1 183.1 376.8 173.4C379.5 167.7 381.6 162.1 383.2 156.7C382.1 157.8 380.8 158.9 379.6 159.9C371.8 165.9 361.9 169.5 355.7 170.8V177.3C342.7 176.3 332.6 162.7 329 155.9C329 155.8 328.9 155.8 328.9 155.7C335.7 143.7 349.6 138.1 355.7 136.8V144.6C369.9 142.5 382.2 123.7 383.7 121.1ZM273.1 166.1C276.1 164 280.3 164.4 283.3 164.8C291.7 166.2 301.9 173.9 304.2 190.3C306.2 204 301.6 216.4 283.3 216.4C269.9 216.4 263.8 204.8 262.6 192.7C262.5 191.3 262.4 189.8 262.4 188.3C262.4 178.8 266.7 170.5 273.1 166.1ZM237.6 212.5C247.5 212.5 252.9 219.3 255.2 223C255.9 224.1 255.2 225.7 253.9 226.1C251.5 226.7 248.2 228 246.7 230.1C245.4 231.9 245.4 234 245.4 234C245.4 234 242.1 238.6 237.6 238.6C233 238.5 229.8 234 229.8 234C229.8 234 229.3 231.5 228.5 230.1C227 227.5 222.8 226.3 220 225.9C218 225.6 218 224.3 218.9 223.1C221.6 219.3 227.8 212.5 237.6 212.5ZM195.1 166.2C205.9 166.2 212.1 177.6 212.1 191.7C212.1 211.9 203.3 217.2 192.5 217.2C186.5 217.2 176.5 213.6 172.9 208.1C170.1 203.7 168.6 201.6 169.6 195C171.6 182.5 184.3 166.2 195.1 166.2ZM266.3 266C265.3 266 264.6 265.7 263.8 265.3C263 264.9 262.2 264.5 261.1 264.7C258.7 265 255.9 268 255.9 268C255.9 268 253.9 267.7 252.6 268C250.5 268.5 248 271.3 248 271.3C248 271.3 244.4 269.8 241.5 270C240.3 270.1 239.3 270.6 238.3 271C237.2 271.5 236.2 272 235 271.9C229.3 271.7 220.6 269.9 220.6 269.9C220.6 269.9 218 265.8 215.4 264.7C213.9 264.1 212.6 264.3 211.3 264.5C210.4 264.7 209.4 264.8 208.2 264.7C195.8 263.4 182.1 246.4 182.1 246.4L195.8 249.7C195.8 249.7 199.2 255.7 203 256.2C206.3 256.6 210.8 252.9 210.8 252.9C210.8 252.9 214.9 256.1 218 256.2C221.6 256.3 226.5 252.3 226.5 252.3C226.5 252.3 228.8 255.8 231.1 256.2C233.9 256.7 237.6 252.9 237.6 252.9C237.6 252.9 240.4 256.3 242.8 256.2C244.5 256.1 246.7 254.2 246.7 254.2H251.3C251.3 254.2 254 256.6 255.9 256.2C257.1 255.9 258.5 254.2 258.5 254.2L266.3 254.9C266.3 254.9 270.4 258.7 273.5 258.2C276.7 257.7 279.4 252.3 279.4 252.3L290.5 249.7C290.5 249.7 273.5 266 266.3 266Z" fill="#D6FB6D"/>
<path fill-rule="evenodd" clip-rule="evenodd" d="M176.3 198.1C176.2 198.5 176.3 197.9 176.3 198.1V198.1Z" fill="#D6FB6D"/>
<path fill-rule="evenodd" clip-rule="evenodd" d="M176.4 198.9C176.6 200 177.1 200.6 177.8 200.9C177.8 200.9 177.8 200.9 177.9 200.9C178 200.9 178.1 201 178.2 201H178.3C178.4 201 178.5 201.1 178.5 201.1C178.6 201.1 178.8 201.2 178.9 201.2C181.3 201.8 182.8 201.3 188.2 186.9C189.2 183.1 188.5 179.7 186.1 179.1C183.7 178.5 181 180.3 179.4 184.7C176.9 191.2 176.2 195.6 176.4 198C176.3 198.4 176.3 198.6 176.4 198.9Z" fill="#D6FB6D"/>
<path d="M570.3 179.4V149C570.3 142.9 568.4 138 564.6 134.2C562.8 132.4 558.8 129 551 129.4C543.2 129.8 538 136.3 536.9 137.5V110.8H522.2V179.5H536.9V152C536.9 149.3 537.7 147 539.5 145.3C541.3 143.5 543.5 142.6 546.3 142.6C549 142.6 551.3 143.5 553 145.3C554.8 147 555.7 149.2 555.7 152V179.5H570.3V179.4Z" fill="white"/>
<path d="M586.7 124H588.7C592.2 124 595.1 121.1 595.1 117.6C595.1 114.1 592.2 111.2 588.7 111.2H586.7C583.2 111.2 580.3 114.1 580.3 117.6C580.3 121.1 583.1 124 586.7 124Z" fill="white"/>
<path d="M595 130.2H580.3V179.4H595V130.2Z" fill="white"/>
<path d="M611.6 165.7C611.6 174.9 616.3 179.4 625.8 179.4H637.6V165.7H629.7C627.4 165.7 626.3 164.6 626.3 162.3V143.2H637.6V131.6H626.3V114.6H611.6V131.6H603.7V143.2H611.6V165.7Z" fill="white"/>
<path d="M679.4 163.6C678.9 164.3 678.2 165.1 677.1 165.9C675 167.3 672.7 168.1 670 168.1C666.9 168.1 664.2 167.2 662.1 165.3C660.1 163.3 658.7 160.3 658.7 156.7H695.2C695.4 155.1 695.5 153.9 695.5 153C695.5 145.9 693.1 139.9 688.2 135.1C683.3 130.3 677.3 127.9 669.9 127.9C662.3 127.9 656.1 130.4 651.2 135.3C646.4 140.1 643.9 146.4 643.9 153.9C643.9 161.5 646.3 167.7 651.2 172.6C656.1 177.4 662.4 179.9 669.9 179.9C677.5 179.9 683.8 177.2 688.9 171.9C691.1 169.5 692.7 166.8 693.9 163.8H679.4V163.6ZM670 139.1C676.1 139.1 679.8 142.4 681.3 148.9H658.7C660.2 142.4 664 139.1 670 139.1Z" fill="white"/>
<path d="M515.3 110.7H498.1L487.8 159.8C487.8 159.8 483.5 144 481.1 134.6C478.7 125.3 475.5 110.7 475.5 110.7H458.8C458.8 110.7 455.5 125.3 453 134.6C450.5 144 445.8 159.8 445.8 159.8L436.2 110.7H419L435.7 179.4H455.8C455.8 179.4 460.8 167.7 462.9 159.8C465.2 151.5 466.8 138.2 466.8 138.2C466.8 138.2 468.4 151.6 470.7 159.8C473 167.7 478.3 179.4 478.3 179.4H498.4L515.3 110.7Z" fill="white"/>
<path d="M534.6 230.2L523.8 228.2C520.7 227.6 518.5 226.9 517.2 225.9C516 224.9 515.4 223.5 515.4 221.8C515.4 219.7 516.3 218 518 216.6C519.8 215.2 522.3 214.4 525.7 214.4C529.4 214.4 532.4 215.3 534.6 217.2C536.8 219 537.9 221.4 537.9 224.2H553.6C553.6 217.1 551.1 211.4 546.2 207.1C541.3 202.8 534.4 200.6 525.6 200.6C517.5 200.6 511.1 202.6 506.5 206.6C501.9 210.6 499.6 215.6 499.6 221.7C499.6 227.1 501.1 231.4 504 234.6C507 237.7 511.6 239.8 517.7 240.9L528.5 242.9C532.1 243.6 534.6 244.6 536.1 245.7C537.6 246.9 538.4 248.4 538.4 250.2C538.4 252.4 537.4 254.1 535.5 255.5C533.6 256.9 530.6 257.6 526.7 257.6C522.6 257.6 519.5 256.7 517.3 254.9C515.1 253.1 514 250.7 514 247.8H498.3C498.3 254.6 500.9 260.2 506 264.7C511.1 269.1 518 271.4 526.8 271.4C535.6 271.4 542.3 269.4 547.1 265.5C551.9 261.5 554.3 256.4 554.3 250.3C554.3 244.4 552.7 239.9 549.6 236.8C546.4 233.7 541.4 231.5 534.6 230.2Z" fill="white"/>
<path d="M674.7 224.6C670.8 221.1 665.2 219.4 658.1 219.4C651.6 219.4 646.4 220.9 642.6 224C638.8 227 636.6 230.9 636 235.6H650.2C650.5 234.9 651 234.2 651.8 233.4C653.4 231.9 655.5 231.1 658.1 231.1C660.6 231.1 662.5 231.8 663.9 233.2C665.3 234.5 666 236.3 666 238.5V239.5H654.7C648 239.5 642.9 241 639.4 244C635.9 246.9 634.1 250.8 634.1 255.7C634.1 260.3 635.8 264 639.1 267C642.4 269.9 647 271.4 652.7 271.4C657 271.4 660.4 270.5 663.1 268.8C664.5 267.9 665.7 267 666.4 266.1H666.9L667.9 270.5H680.7V238.5C680.7 232.7 678.7 228.1 674.7 224.6ZM665.9 250.4C665.9 253.3 665 255.7 663.1 257.6C661.3 259.4 658.8 260.2 655.6 260.2C653.4 260.2 651.7 259.7 650.5 258.7C649.3 257.7 648.7 256.3 648.7 254.8C648.7 253.2 649.4 251.9 650.7 250.9C652 249.9 654 249.4 656.6 249.4H665.9V250.4Z" fill="white"/>
<path d="M736 226.8C731.4 221.9 727.7 220.4 719.8 220.4C711.3 220.4 705.6 226.1 704.8 230L703.7 220.4H691V290.1H705.7V266.5H706.2C707.3 267.6 708.3 268.4 709.2 269C711.8 270.6 715.1 271.5 718.9 271.5C725.6 271.5 731.3 269 736 264.1C740.6 259.2 743 253 743 245.5C743 237.9 740.7 231.7 736 226.8ZM725 254.4C722.9 256.6 720.2 257.7 717 257.7C713.8 257.7 711 256.6 708.9 254.4C706.8 252.1 705.8 249.1 705.8 245.5C705.8 241.9 706.8 238.9 708.9 236.7C711.1 234.4 713.8 233.3 717 233.3C720.2 233.3 723 234.4 725 236.7C727.2 238.9 728.2 241.9 728.2 245.5C728.2 249.1 727.2 252.1 725 254.4Z" fill="white"/>
<path d="M611.4 257C611.4 257 608.2 245.3 606.4 238.3C604.6 231.4 602.2 220.6 602.2 220.6H589.7C589.7 220.6 587.2 231.4 585.4 238.3C583.5 245.3 580 257 580 257L572.8 220.6H560L572.5 271.5H587.5C587.5 271.5 591.2 262.8 592.8 257C594.5 250.9 595.7 241 595.7 241C595.7 241 596.9 250.9 598.6 257C600.3 262.9 604.3 271.5 604.3 271.5H619.3L631.8 220.6H619L611.4 257Z" fill="white"/>
</g>
<defs>
<clipPath id="clip0_531_142">
<rect width="842" height="383" fill="white"/>
</clipPath>
</defs>
</svg>
