<svg width="132" height="60" viewBox="0 0 132 60" fill="none" xmlns="http://www.w3.org/2000/svg">
<path fill-rule="evenodd" clip-rule="evenodd" d="M38.1038 30.2938C38.5738 30.4113 39.1221 29.9021 39.3179 29.1384C39.5138 28.3943 39.2788 27.6697 38.7892 27.5522C38.3192 27.4347 37.7709 27.9439 37.5751 28.7076C37.3989 29.4713 37.6339 30.1763 38.1038 30.2938Z" fill="#D6FB6D"/>
<path d="M37.8103 32.0756C38.1671 32.0756 38.4565 31.7864 38.4565 31.4294C38.4565 31.0724 38.1671 30.7832 37.8103 30.7832C37.4533 30.7832 37.1641 31.0724 37.1641 31.4294C37.1641 31.7864 37.4533 32.0756 37.8103 32.0756Z" fill="#D6FB6D"/>
<path fill-rule="evenodd" clip-rule="evenodd" d="M59.7619 16.214C60.0556 15.7049 58.3912 14.2558 58.2541 14.1187C55.4342 11.7884 50.4212 12.9242 45.7019 16.5273C45.506 16.684 45.2906 16.449 45.0948 16.6252C41.7267 13.2179 37.0661 11.103 31.8964 11.103C26.7658 11.103 22.1248 13.1983 18.7567 16.5665C18.5021 16.3315 18.228 15.9986 17.9538 15.7832C13.5674 12.2388 8.61307 10.6331 5.12743 13.4725C1.62229 16.3119 2.62098 23.479 7.24231 30.0195C7.16398 29.0795 7.2619 27.8654 8.51516 26.5926L7.24231 25.6918C7.79062 25.1043 9.43553 24.0861 12.0987 24.2819C12.7449 25.2218 13.8415 27.4542 12.6078 29.3928L11.4525 28.3746C10.728 29.5299 9.3572 32.9568 11.4525 34.6409C12.5491 35.6004 14.0569 36.8928 15.1731 37.5586C18.1692 43.7662 24.5139 48.5639 31.8768 48.5639C39.4551 48.5639 45.976 44.0208 48.835 37.4999C50.8716 36.1683 52.9081 34.3472 54.7293 32.1539C56.2567 30.2936 57.4904 28.355 58.4107 26.4555C58.9395 25.3393 59.3507 24.2427 59.664 23.1853C59.4486 23.4007 59.194 23.6161 58.959 23.8119C57.4316 24.9868 55.493 25.6918 54.2789 25.9464V27.2192C51.7332 27.0234 49.7554 24.3602 49.0504 23.0286C49.0504 23.009 49.0308 23.009 49.0308 22.9895C50.3624 20.6396 53.0844 19.543 54.2789 19.2884V20.8158C57.0596 20.4046 59.4682 16.7231 59.7619 16.214ZM38.1039 25.026C38.6914 24.6148 39.5139 24.6931 40.1013 24.7714C41.7462 25.0456 43.7436 26.5534 44.194 29.7649C44.5857 32.4477 43.6849 34.8759 40.1013 34.8759C37.4773 34.8759 36.2828 32.6043 36.0478 30.2349C36.0282 29.9607 36.0086 29.667 36.0086 29.3733C36.0086 27.513 36.8507 25.8876 38.1039 25.026ZM31.1522 34.1122C33.0909 34.1122 34.1483 35.4438 34.5987 36.1683C34.7358 36.3837 34.5987 36.697 34.3441 36.7754C33.8742 36.8928 33.228 37.1474 32.9342 37.5586C32.6797 37.9111 32.6797 38.3224 32.6797 38.3224C32.6797 38.3224 32.0334 39.2231 31.1522 39.2231C30.2515 39.2036 29.6248 38.3224 29.6248 38.3224C29.6248 38.3224 29.5269 37.8328 29.3703 37.5586C29.0765 37.0495 28.2541 36.8145 27.7058 36.7362C27.3141 36.6774 27.3141 36.4229 27.4904 36.1879C28.0191 35.4438 29.2332 34.1122 31.1522 34.1122ZM22.8298 25.0456C24.9447 25.0456 26.1588 27.278 26.1588 30.0391C26.1588 33.9947 24.4355 35.0325 22.3206 35.0325C21.1457 35.0325 19.1875 34.3276 18.4825 33.2506C17.9342 32.3889 17.6405 31.9777 17.8363 30.6853C18.228 28.2375 20.7149 25.0456 22.8298 25.0456ZM36.7723 44.5887C36.5765 44.5887 36.4394 44.5299 36.2828 44.4516C36.1261 44.3733 35.9695 44.2949 35.7541 44.3341C35.2841 44.3929 34.7358 44.9803 34.7358 44.9803C34.7358 44.9803 34.3441 44.9216 34.0896 44.9803C33.6784 45.0782 33.1888 45.6265 33.1888 45.6265C33.1888 45.6265 32.4838 45.3328 31.9159 45.372C31.681 45.3915 31.4851 45.4895 31.2893 45.5678C31.0739 45.6657 30.8781 45.7636 30.6431 45.744C29.5269 45.7049 27.8233 45.3524 27.8233 45.3524C27.8233 45.3524 27.3141 44.5495 26.805 44.3341C26.5112 44.2166 26.2567 44.2558 26.0021 44.2949C25.8259 44.3341 25.63 44.3537 25.3951 44.3341C22.9669 44.0795 20.2841 40.7505 20.2841 40.7505L22.9669 41.3968C22.9669 41.3968 23.6327 42.5717 24.3768 42.6696C25.023 42.7479 25.9042 42.0234 25.9042 42.0234C25.9042 42.0234 26.7071 42.65 27.3141 42.6696C28.0191 42.6892 28.9786 41.9059 28.9786 41.9059C28.9786 41.9059 29.429 42.5913 29.8794 42.6696C30.4277 42.7675 31.1522 42.0234 31.1522 42.0234C31.1522 42.0234 31.7005 42.6892 32.1705 42.6696C32.5034 42.65 32.9342 42.278 32.9342 42.278H33.835C33.835 42.278 34.3637 42.7479 34.7358 42.6696C34.9708 42.6109 35.2449 42.278 35.2449 42.278L36.7723 42.415C36.7723 42.415 37.5752 43.1592 38.1823 43.0613C38.8089 42.9633 39.3376 41.9059 39.3376 41.9059L41.5112 41.3968C41.5112 41.3968 38.1823 44.5887 36.7723 44.5887Z" fill="#D6FB6D"/>
<path fill-rule="evenodd" clip-rule="evenodd" d="M19.1484 31.2924C19.1288 31.3707 19.1484 31.2533 19.1484 31.2924V31.2924Z" fill="#D6FB6D"/>
<path fill-rule="evenodd" clip-rule="evenodd" d="M19.168 31.449C19.2072 31.6644 19.3051 31.7819 19.4422 31.8407C19.4422 31.8407 19.4422 31.8407 19.4617 31.8407C19.4813 31.8407 19.5009 31.8603 19.5205 31.8603H19.5401C19.5597 31.8603 19.5792 31.8799 19.5792 31.8799C19.5988 31.8799 19.638 31.8994 19.6576 31.8994C20.1275 32.0169 20.4213 31.919 21.4787 29.0992C21.6745 28.355 21.5375 27.6893 21.0675 27.5718C20.5975 27.4543 20.0688 27.8067 19.7555 28.6684C19.2659 29.9412 19.1288 30.8028 19.168 31.2728C19.1484 31.3511 19.1484 31.3903 19.168 31.449Z" fill="#D6FB6D"/>
<path d="M96.3019 27.6304V21.6774C96.3019 20.4829 95.9298 19.5234 95.1857 18.7793C94.8332 18.4268 94.0499 17.761 92.5225 17.8393C90.9951 17.9176 89.9768 19.1905 89.7614 19.4255V14.197H86.8828V27.65H89.7614V22.2649C89.7614 21.7362 89.9181 21.2858 90.2705 20.9529C90.623 20.6004 91.0538 20.4242 91.6021 20.4242C92.1309 20.4242 92.5812 20.6004 92.9141 20.9529C93.2666 21.2858 93.4429 21.7166 93.4429 22.2649V27.65H96.3019V27.6304Z" fill="white"/>
<path d="M99.514 16.7819H99.9057C100.591 16.7819 101.159 16.214 101.159 15.5287C101.159 14.8433 100.591 14.2754 99.9057 14.2754H99.514C98.8286 14.2754 98.2607 14.8433 98.2607 15.5287C98.2607 16.214 98.809 16.7819 99.514 16.7819Z" fill="white"/>
<path d="M101.139 17.9961H98.2607V27.6306H101.139V17.9961Z" fill="white"/>
<path d="M104.39 24.9477C104.39 26.7493 105.31 27.6305 107.17 27.6305H109.481V24.9477H107.934C107.484 24.9477 107.268 24.7323 107.268 24.2819V20.5417H109.481V18.2701H107.268V14.9412H104.39V18.2701H102.843V20.5417H104.39V24.9477Z" fill="white"/>
<path d="M117.667 24.5365C117.569 24.6736 117.432 24.8302 117.216 24.9869C116.805 25.2611 116.355 25.4177 115.826 25.4177C115.219 25.4177 114.69 25.2415 114.279 24.8694C113.887 24.4778 113.613 23.8903 113.613 23.1853H120.761C120.8 22.872 120.819 22.637 120.819 22.4608C120.819 21.0705 120.349 19.8955 119.39 18.9556C118.43 18.0156 117.255 17.5457 115.806 17.5457C114.318 17.5457 113.104 18.0352 112.144 18.9947C111.204 19.9347 110.715 21.1684 110.715 22.637C110.715 24.1253 111.185 25.3394 112.144 26.2989C113.104 27.2389 114.338 27.7284 115.806 27.7284C117.294 27.7284 118.528 27.1997 119.527 26.1618C119.958 25.6919 120.271 25.1631 120.506 24.5757H117.667V24.5365ZM115.826 19.7389C117.02 19.7389 117.745 20.3851 118.039 21.6579H113.613C113.907 20.3851 114.651 19.7389 115.826 19.7389Z" fill="white"/>
<path d="M85.5315 14.1775H82.1634L80.1464 23.7924C80.1464 23.7924 79.3044 20.6984 78.8344 18.8576C78.3644 17.0365 77.7378 14.1775 77.7378 14.1775H74.4676C74.4676 14.1775 73.8213 17.0365 73.3318 18.8576C72.8422 20.6984 71.9219 23.7924 71.9219 23.7924L70.042 14.1775H66.6738L69.9441 27.6305H73.8801C73.8801 27.6305 74.8592 25.3394 75.2704 23.7924C75.7208 22.167 76.0341 19.5626 76.0341 19.5626C76.0341 19.5626 76.3475 22.1866 76.7979 23.7924C77.2482 25.3394 78.2861 27.6305 78.2861 27.6305H82.2221L85.5315 14.1775Z" fill="white"/>
<path d="M89.3115 37.5783L87.1966 37.1867C86.5895 37.0692 86.1587 36.9321 85.9042 36.7363C85.6692 36.5405 85.5517 36.2663 85.5517 35.9334C85.5517 35.5222 85.7279 35.1893 86.0608 34.9151C86.4133 34.641 86.9029 34.4843 87.5687 34.4843C88.2932 34.4843 88.8807 34.6606 89.3115 35.0326C89.7423 35.3851 89.9577 35.8551 89.9577 36.4034H93.0321C93.0321 35.0131 92.5426 33.8969 91.583 33.0548C90.6235 32.2128 89.2723 31.782 87.5491 31.782C85.9629 31.782 84.7097 32.1736 83.8089 32.9569C82.9081 33.7402 82.4577 34.7193 82.4577 35.9138C82.4577 36.9713 82.7514 37.8133 83.3193 38.4399C83.9068 39.047 84.8076 39.4582 86.0021 39.6736L88.117 40.0653C88.8219 40.2023 89.3115 40.3982 89.6052 40.6136C89.8989 40.8486 90.0556 41.1423 90.0556 41.4948C90.0556 41.9256 89.8598 42.2585 89.4877 42.5326C89.1157 42.8068 88.5282 42.9439 87.7645 42.9439C86.9616 42.9439 86.3546 42.7676 85.9238 42.4151C85.4929 42.0627 85.2775 41.5927 85.2775 41.0248H82.2031C82.2031 42.3564 82.7123 43.453 83.711 44.3342C84.7097 45.1958 86.0608 45.6462 87.7841 45.6462C89.5073 45.6462 90.8193 45.2546 91.7593 44.4909C92.6992 43.7076 93.1692 42.7089 93.1692 41.5144C93.1692 40.359 92.8559 39.4778 92.2488 38.8708C91.6222 38.2637 90.6431 37.8329 89.3115 37.5783Z" fill="white"/>
<path d="M116.746 36.4817C115.983 35.7963 114.886 35.4634 113.496 35.4634C112.223 35.4634 111.205 35.7571 110.46 36.3642C109.716 36.9516 109.285 37.7153 109.168 38.6357H111.949C112.007 38.4986 112.105 38.3616 112.262 38.2049C112.575 37.9112 112.987 37.7545 113.496 37.7545C113.985 37.7545 114.357 37.8916 114.631 38.1657C114.906 38.4203 115.043 38.7728 115.043 39.2036V39.3994H112.83C111.518 39.3994 110.519 39.6931 109.834 40.2806C109.148 40.8485 108.796 41.6122 108.796 42.5717C108.796 43.4725 109.129 44.1971 109.775 44.7845C110.421 45.3524 111.322 45.6461 112.438 45.6461C113.28 45.6461 113.946 45.4699 114.475 45.137C114.749 44.9608 114.984 44.7845 115.121 44.6083H115.219L115.415 45.4699H117.921V39.2036C117.921 38.0678 117.53 37.167 116.746 36.4817ZM115.023 41.5339C115.023 42.1018 114.847 42.5717 114.475 42.9438C114.122 43.2963 113.633 43.4529 113.006 43.4529C112.575 43.4529 112.242 43.355 112.007 43.1592C111.772 42.9634 111.655 42.6892 111.655 42.3955C111.655 42.0822 111.792 41.8276 112.047 41.6318C112.301 41.436 112.693 41.3381 113.202 41.3381H115.023V41.5339Z" fill="white"/>
<path d="M128.75 36.9124C127.849 35.9529 127.124 35.6592 125.577 35.6592C123.913 35.6592 122.797 36.7754 122.64 37.5391L122.424 35.6592H119.938V49.308H122.816V44.6866H122.914C123.129 44.902 123.325 45.0587 123.501 45.1762C124.011 45.4895 124.657 45.6657 125.401 45.6657C126.713 45.6657 127.829 45.1762 128.75 44.2166C129.65 43.2571 130.12 42.043 130.12 40.5743C130.12 39.0861 129.67 37.872 128.75 36.9124ZM126.595 42.3171C126.184 42.748 125.656 42.9634 125.029 42.9634C124.402 42.9634 123.854 42.748 123.443 42.3171C123.031 41.8668 122.836 41.2793 122.836 40.5743C122.836 39.8694 123.031 39.2819 123.443 38.8511C123.874 38.4007 124.402 38.1853 125.029 38.1853C125.656 38.1853 126.204 38.4007 126.595 38.8511C127.026 39.2819 127.222 39.8694 127.222 40.5743C127.222 41.2793 127.026 41.8668 126.595 42.3171Z" fill="white"/>
<path d="M104.35 42.8264C104.35 42.8264 103.724 40.5353 103.371 39.1645C103.019 37.8134 102.549 35.6985 102.549 35.6985H100.101C100.101 35.6985 99.6115 37.8134 99.2591 39.1645C98.887 40.5353 98.2016 42.8264 98.2016 42.8264L96.7917 35.6985H94.2852L96.7329 45.6658H99.6703C99.6703 45.6658 100.395 43.9622 100.708 42.8264C101.041 41.6319 101.276 39.6933 101.276 39.6933C101.276 39.6933 101.511 41.6319 101.844 42.8264C102.177 43.9818 102.96 45.6658 102.96 45.6658H105.897L108.345 35.6985H105.839L104.35 42.8264Z" fill="white"/>
</svg>
