<svg width="688" height="299" viewBox="0 0 688 299" fill="none" xmlns="http://www.w3.org/2000/svg">
<path d="M687.804 17.3573V298.574L0 297.974L15.6886 293.632C19.6199 292.544 23.7708 292.529 27.71 293.588L29.2042 293.989C33.0252 295.017 37.0768 294.772 40.7464 293.292C42.9116 292.419 45.2245 291.97 47.5592 291.97H49.5125C63.8486 291.97 75.9169 281.243 77.598 267.006L78.292 261.128C78.415 260.086 78.75 259.08 79.2764 258.172L79.5741 257.658C81.1781 254.891 84.4659 253.578 87.5344 254.481L88.9915 254.909C91.0806 255.524 92.5153 257.441 92.5153 259.619V264.114C92.5153 265.621 94.0827 266.616 95.4461 265.974C96.0131 265.707 96.4275 265.197 96.5715 264.587L97.6907 259.848C98.4597 256.591 100.538 253.796 103.436 252.121L135.264 233.73L136.566 233.016C140.598 230.802 143.458 226.934 144.392 222.43L144.654 221.165C146.441 212.549 155.395 207.466 163.709 210.348L167.332 211.604C170.356 212.653 173.713 211.894 175.992 209.647C180.441 205.261 187.95 207.085 189.892 213.023L191.263 217.217C192.344 220.523 196.129 222.072 199.217 220.474C202.613 218.716 206.736 220.775 207.372 224.545L207.466 225.102C208.565 231.617 217.819 231.909 219.327 225.476L221.819 214.846C221.964 214.229 222.037 213.597 222.037 212.963V212.681C222.037 209.646 223.326 206.755 225.584 204.727L232.51 198.505C234.376 196.829 237.3 197.228 238.649 199.343C240.178 201.741 243.635 201.866 245.332 199.584L249.175 194.418C250.2 193.04 251.618 192.005 253.243 191.449L264.785 187.499L274.234 183.755C275.955 183.073 277.868 183.057 279.6 183.709L285.965 186.105C287.756 186.779 289.669 185.455 289.669 183.542C289.669 181.659 291.525 180.337 293.305 180.954L299.048 182.945C300.505 183.45 302.075 182.564 302.395 181.056C302.739 179.44 304.499 178.566 305.994 179.269L309.187 180.772C311.461 181.842 314.173 180.902 315.297 178.654C316.769 175.712 320.753 175.2 322.92 177.676L324.515 179.499C325.929 181.115 328.49 180.955 329.693 179.177C330.799 177.54 333.091 177.249 334.572 178.555L336.566 180.314C339.042 182.498 342.951 181.289 343.761 178.088L344.096 176.765C344.641 174.611 347.084 173.565 349.019 174.657C350.477 175.481 352.318 175.108 353.341 173.784L354.157 172.728C355.608 170.851 358.194 170.279 360.301 171.37L368.053 175.382C368.678 175.705 369.423 175.252 369.423 174.548C369.423 173.743 370.37 173.311 370.978 173.839L374.334 176.755C375.939 178.148 378.445 177.452 379.101 175.431L395.897 123.655C396.108 123.004 396.514 122.434 397.06 122.023C398.403 121.012 400.288 121.161 401.455 122.369L403.692 124.685C404.99 126.028 406.909 126.571 408.718 126.107C411.101 125.495 413.587 126.64 414.67 128.85L414.813 129.141C415.897 131.351 418.299 132.592 420.729 132.198L430.497 130.613C433.306 130.157 436.113 131.444 437.6 133.871L442.656 142.118C443.517 143.523 445.605 143.368 446.25 141.852L446.426 141.438C446.852 140.436 448.105 140.1 448.975 140.755C449.767 141.351 450.9 141.133 451.415 140.286L451.573 140.024C452.273 138.873 453.9 138.759 454.753 139.802L456.152 141.514C457.712 143.422 460.7 143.174 461.925 141.035L465.476 134.828C466.946 132.259 470.4 131.678 472.629 133.626C474.957 135.66 478.582 134.923 479.931 132.142L485.054 121.581C487.76 116.003 495.207 114.849 499.475 119.347L503.489 123.578C505.125 125.302 507.913 125.161 509.366 123.28C510.663 121.602 513.068 121.279 514.762 122.554L517.728 124.787C521.336 127.503 526.5 126.51 528.844 122.65L531.86 117.684C532.032 117.401 532.123 117.076 532.123 116.745C532.123 115.361 533.614 114.491 534.819 115.171L536.921 116.358C537.903 116.912 539.103 116.912 540.085 116.358L540.442 116.156C542.69 114.887 545.53 116.084 546.193 118.578L549.401 130.655C549.626 131.499 550.746 131.673 551.215 130.937C551.565 130.389 552.335 130.313 552.785 130.783L561.825 140.235C562.734 141.186 564.186 141.366 565.301 140.667C566.415 139.968 567.867 140.149 568.776 141.099L575.854 148.499C577.489 150.209 580.13 150.465 582.063 149.1C583.171 148.319 583.894 147.103 584.053 145.756L588.01 112.25C588.101 111.474 589.101 111.219 589.552 111.857C590.002 112.492 590.998 112.242 591.094 111.47L591.821 105.658C591.987 104.332 592.976 103.258 594.284 102.985L596.739 102.471C597.414 102.33 598.112 102.581 598.542 103.121C599.605 104.455 601.753 103.734 601.797 102.029L602.905 58.7727C602.924 58.0365 603.692 57.5622 604.359 57.8758L604.866 58.1144C605.191 58.2673 605.575 58.0823 605.657 57.7327C605.811 57.0794 606.773 57.1914 606.773 57.8626V129.009C606.773 130.149 608.395 130.361 608.687 129.259L617.62 71.6202L618.761 64.4614C618.992 63.0135 620.961 62.7466 621.569 64.081C622.154 65.3646 624.032 65.1804 624.356 63.8077L626.63 54.1787C626.813 53.4053 627.871 53.3015 628.2 54.0247C628.517 54.7211 629.527 54.6582 629.755 53.9279L631.809 47.3567C632.072 46.5132 632.991 46.0649 633.818 46.3762C634.697 46.7068 635.663 46.1806 635.863 45.2636L639.776 27.2613C640.182 25.3929 642.792 25.2495 643.4 27.0622C643.961 28.7317 646.302 28.7867 646.94 27.1454L653 10.9586C653.401 9.92594 655.198 9.89262 655.5 10.9586C655.846 12.1789 657.686 11.7633 657.824 10.5025L658.211 6.98141C658.385 5.39765 660.632 5.2503 661.011 6.79776C661.391 8.34372 663.634 8.19871 663.811 6.6168L664.03 4.66376C664.259 2.61238 667.215 2.54007 667.544 4.57778L667.85 6.46674C668.221 8.76163 671.529 8.7418 671.873 6.44262L672.493 2.2914C672.961 -0.839655 677.513 -0.728907 677.828 2.4212L679.265 16.7974C679.514 19.2811 683.081 19.4256 683.529 16.9701C684.001 14.3882 687.804 14.7327 687.804 17.3573Z" fill="url(#paint0_linear_103_54)"/>
<defs>
<linearGradient id="paint0_linear_103_54" x1="343.902" y1="72.821" x2="343.902" y2="298.575" gradientUnits="userSpaceOnUse">
<stop stop-color="#FF236C"/>
<stop offset="1" stop-color="#3E1423"/>
</linearGradient>
</defs>
</svg>
