<svg width="4000" height="4000" viewBox="0 0 4000 4000" fill="none" xmlns="http://www.w3.org/2000/svg">
<rect width="4000" height="4000" rx="2000" fill="white"/>
<path d="M2606 2452L3199 2110C3230 2092 3250 2058 3250 2022V1337C3250 1301 3230 1267 3199 1249L2606 907C2575 889 2536 889 2504 907L1911 1249C1880 1267 1860 1301 1860 1337V2561L1444 2801L1028 2561V2081L1444 1841L1718 1999V1677L1495 1548C1480 1539 1462 1534 1444 1534C1426 1534 1409 1539 1393 1548L800 1890C769 1908 749 1942 749 1978V2663C749 2699 769 2733 800 2751L1393 3093C1424 3111 1463 3111 1495 3093L2088 2751C2119 2733 2139 2699 2139 2663V1439L2147 1435L2555 1199L2971 1439V1919L2555 2159L2281 2001V2323L2504 2452C2535 2470 2574 2470 2606 2452Z" fill="url(#paint0_linear_258_2501)"/>
<defs>
<linearGradient id="paint0_linear_258_2501" x1="959.715" y1="2754.36" x2="3112.71" y2="1192.36" gradientUnits="userSpaceOnUse">
<stop stop-color="#A726C1"/>
<stop offset="0.8784" stop-color="#803BDF"/>
<stop offset="1" stop-color="#7B3FE4"/>
</linearGradient>
</defs>
</svg>
