<svg width="734" height="734" viewBox="0 0 734 734" fill="none" xmlns="http://www.w3.org/2000/svg">
<rect width="734" height="734" fill="white"/>
<g clip-path="url(#clip0_2_11)">
<path fill-rule="evenodd" clip-rule="evenodd" d="M222.263 117C164.128 117 117 164.128 117 222.263V413.053C117 444.003 130.358 471.834 151.623 491.094L250.37 589.841L321.895 518.316H413.053C471.188 518.316 518.316 471.188 518.316 413.053V321.895L589.933 250.278L488.314 148.66L488.309 148.664C469.199 129.126 442.542 117 413.053 117H222.263Z" fill="#080A28"/>
<path d="M215.688 320.943C215.688 262.808 262.815 215.68 320.951 215.68H511.74C569.875 215.68 617.003 262.808 617.003 320.943V511.732C617.003 569.868 569.875 616.995 511.74 616.995H320.951C262.815 616.995 215.688 569.868 215.688 511.732V320.943Z" fill="#0066FF"/>
<path d="M215.682 301.206C215.682 253.971 253.973 215.68 301.208 215.68H518.313V432.785C518.313 480.02 480.022 518.311 432.787 518.311H215.682V301.206Z" fill="#E3E8EF"/>
<path d="M319.46 414.545C286.355 381.44 286.355 327.742 319.46 294.637L439.368 414.545C406.263 447.65 352.565 447.65 319.46 414.545Z" fill="#080A28"/>
</g>
<defs>
<clipPath id="clip0_2_11">
<rect width="500" height="500" fill="white" transform="translate(117 117)"/>
</clipPath>
</defs>
</svg>
